<?xml version="1.0" encoding="utf-8"?>
<!-- Generator: Adobe Illustrator 25.3.1, SVG Export Plug-In . SVG Version: 6.00 Build 0)  -->
<svg version="1.1" id="Layer_1" xmlns="http://www.w3.org/2000/svg" xmlns:xlink="http://www.w3.org/1999/xlink" x="0px" y="0px"
	 viewBox="0 0 56 56" style="enable-background:new 0 0 56 56;" xml:space="preserve">
<style type="text/css">
	.st0{fill:none;stroke:#0061D5;stroke-width:3.5;}
</style>
<g id="Design">
	<g id="CC-Free-Trial---SEO" transform="translate(-690.000000, -1058.000000)">
		<g id="Cards" transform="translate(0.000000, 600.000000)">
			<g id="Group" transform="translate(525.000000, 460.000000)">
				<g id="Group-5" transform="translate(167.458669, 0.458970)">
					<path id="Stroke-1" class="st0" d="M33.8,33.8C20.1,47.4,5.4,54.7,0.9,50.2c-4.5-4.5,2.8-19.3,16.4-32.9
						C30.9,3.7,45.7-3.7,50.2,0.9C54.7,5.4,47.4,20.1,33.8,33.8z"/>
					<path id="Stroke-3" class="st0" d="M33.8,17.3c13.6,13.6,21,28.3,16.4,32.9c-4.5,4.5-19.3-2.8-32.9-16.4
						C3.7,20.1-3.7,5.4,0.9,0.9C5.4-3.7,20.1,3.7,33.8,17.3z"/>
				</g>
			</g>
		</g>
	</g>
</g>
</svg>
