<?xml version="1.0" encoding="utf-8"?>
<!-- Generator: Adobe Illustrator 25.3.1, SVG Export Plug-In . SVG Version: 6.00 Build 0)  -->
<svg version="1.1" id="Layer_1" xmlns="http://www.w3.org/2000/svg" xmlns:xlink="http://www.w3.org/1999/xlink" x="0px" y="0px"
	 viewBox="0 0 56 56" style="enable-background:new 0 0 56 56;" xml:space="preserve">
<style type="text/css">
	.st0{fill:none;stroke:#0061D5;stroke-width:3.5;stroke-linecap:round;stroke-linejoin:round;}
	.st1{fill:none;stroke:#0061D5;stroke-width:2.5;stroke-linecap:round;stroke-linejoin:round;}
</style>
<g id="Design">
	<g id="CC-Free-Trial---SEO" transform="translate(-690.000000, -790.000000)">
		<g id="Cards" transform="translate(0.000000, 600.000000)">
			<g id="Group" transform="translate(525.000000, 188.000000)">
				<g id="Group-7" transform="translate(167.185579, 4.185282)">
					<path id="Stroke-1" class="st0" d="M33.8,37.8h8.6c5.2,0,9.4-4.3,9.4-9.7c0-5.3-4.2-9.7-9.4-9.7h0c0.1-0.7,0.2-1.3,0.2-2
						c0-7.1-5.7-12.9-12.6-12.9c-5.7,0-10.5,3.9-12.1,9.2c-0.9-0.4-1.9-0.7-2.9-0.7c-3.6,0-6.6,2.9-6.8,6.5
						c-4.6,0.6-8.2,4.7-8.2,9.6c0,5.3,4.2,9.7,9.4,9.7h10.7"/>
					<line id="Stroke-3" class="st1" x1="26.9" y1="48.3" x2="26.9" y2="22.3"/>
					<polyline id="Stroke-5" class="st1" points="18.2,29.8 26.9,22.3 35.5,29.8 					"/>
				</g>
			</g>
		</g>
	</g>
</g>
</svg>
